<svg xmlns="http://www.w3.org/2000/svg" viewBox="0 0 256 256" xmlns:v="https://vecta.io/nano"><defs><linearGradient id="A" x1="0" y1="0" x2="1" y2="1"><stop offset="0" stop-color="#0f5cff"/><stop offset="1" stop-color="#06183f"/></linearGradient><linearGradient id="B" x1="0" y1="0" x2="1" y2="1"><stop offset="0" stop-color="#17b5ff"/><stop offset="1" stop-color="#0640c7"/></linearGradient><linearGradient id="C" x1="0" y1="0" x2="1" y2="0"><stop offset="0" stop-color="#7fd8ff"/><stop offset="1" stop-color="#2296ff"/></linearGradient><filter id="D" x="-20%" y="-20%" width="140%" height="140%"><feDropShadow dx="0" dy="8" stdDeviation="8" flood-color="#013" flood-opacity=".35"/></filter></defs><rect width="256" height="256" rx="56" fill="url(#A)"/><path filter="url(#D)" d="M128 28c25 25 54 42 90 51v50c0 48-30 79-90 106-60-27-90-58-90-106V79c36-9 65-26 90-51Z" fill="#fff"/><path d="M128 45c22 21 47 35 79 44v39c0 39-24 66-79 91-55-25-79-52-79-91V89c32-9 57-23 79-44Z" fill="url(#B)"/><path d="M128 45c22 21 47 35 79 44v39c0 39-24 66-79 91Z" fill="#0633a8" opacity=".28"/><g fill="none"><path d="M103 99l-27 27 27 27m50-54l27 27-27 27" stroke="#fff" stroke-width="17" stroke-linecap="round" stroke-linejoin="round"/><g stroke="url(#C)"><path d="M81 173c30 20 64 20 94 0" stroke-width="10" stroke-linecap="round"/><path d="M93 195c23 13 47 13 70 0" stroke-width="9" stroke-linecap="round" opacity=".9"/></g></g></svg>